<svg xmlns="http://www.w3.org/2000/svg" width="885" height="304" xmlns:v="https://vecta.io/nano"><style><![CDATA[.B{fill-rule:nonzero}.C{fill:#8c4f9f}.D{fill:#0096d4}.E{fill:#cd5a5e}]]></style><g fill-rule="evenodd"><text fill="#808285" font-family="Helvetica" font-size="40.29" letter-spacing="11.4" class="B"><tspan y="286.88" x="0.68">Guidetomuslimkids.com</tspan></text><path d="M1.86 302.85H661.9M1.86 247.21H661.9" stroke="#434343" stroke-width=".5" fill="#808285" class="B"/><path d="M562.81 163.28a2.6 2.6 0 0 1 .78 2l.4 3.27a9.92 9.92 0 0 0 4.7 6.6 16.19 16.19 0 0 0 11.54 2.26 26.67 26.67 0 0 0 10.09-3.81 3.38 3.38 0 0 0 1.79-3.44c-.56-8.05-1.47-16.05-2.54-24l-2.45-19.88-2.51-26.93c-.31-3.56-.44-7.14-.68-10.71a24.87 24.87 0 0 0-.39-3.55 18.93 18.93 0 0 0-1.1-3.23 3 3 0 0 1-.21-2.48l3.67-8.87c.07-.17.19-.32.42-.72a16.86 16.86 0 0 1 .8 1.58l8.27 23.36a5 5 0 0 1 .39 1.79 1.86 1.86 0 0 1-.7 1.28c-.2.16-.85-.06-1.16-.29a7.11 7.11 0 0 1-1.24-1.38c-.78-1.07-1.52-2.16-2.3-3.27-.8.42-.7 1-.68 1.58.12 2.71.2 5.43.43 8.14l1.34 14.11 1.59 13.78 1.91 17.21c.46 5.12.66 10.28.94 15.42a27.73 27.73 0 0 1-1.14 9.18 126.56 126.56 0 0 0-4 18.74 22.29 22.29 0 0 0 .47 9.37c1.22 4 3.67 6.9 7.85 8.11a11.21 11.21 0 0 0 6.59-.23 29.19 29.19 0 0 0 5.59-2.33c3.92-2.25 7.83-4.57 11.57-7.1l31.94-21.9a48.64 48.64 0 0 0 4.78-3.95 1.89 1.89 0 0 0 .43-2.91 19.92 19.92 0 0 0-2.18-2.85 35.62 35.62 0 0 0-10-7.53l-14.65-7.57a57.66 57.66 0 0 1-19.79-16.28 7.24 7.24 0 0 0-3.63-2.82c-.5-2.93-.51-9.39 0-10.56a2.69 2.69 0 0 1 .9.21l12 8c.2.14.4.26.8.52-1.65 1.19-3.26.11-4.73.66 0 .55.46.84.79 1.19a39.09 39.09 0 0 0 7.7 6.29c2.71 1.66 5.5 3.19 8.32 4.66l12.4 6.26a41 41 0 0 1 9.18 6.47 17.32 17.32 0 0 1 5.9 11.66c.17 1.9.17 3.81.2 5.72 0 1.784-.597 3.518-1.7 4.92a27.18 27.18 0 0 1-6 6l-23.66 16.85c-5 3.49-10.18 6.78-15.34 10.08a61.06 61.06 0 0 1-10.83 5.46 17.18 17.18 0 0 1-6.79 1.31 9.19 9.19 0 0 1-7.64-4 20.38 20.38 0 0 1-3.21-8.8 54.87 54.87 0 0 1 .46-18.08l1-5.8c-.44.25-.74.37-1 .55a23.75 23.75 0 0 1-12.61 4.2 16 16 0 0 1-9.15-2.31 11.8 11.8 0 0 1-5.75-9.29 7.81 7.81 0 0 0-.33-1.68c-.26-.7-.79-.83-1.36-.31a11.27 11.27 0 0 0-1.64 1.81c-.88 1.25-1.68 2.56-2.51 3.84-2.86 4.45-6.61 7.95-11.72 9.6-6.63 2.13-12.93 1.47-18.35-3.28a19 19 0 0 1-5.62-9.82c-.29-1.09-.53-2.19-.78-3.28h-.34c-.2 1.27-.47 2.53-.59 3.8a14.64 14.64 0 0 1-4 8.69 91.33 91.33 0 0 1-11.42 10.56A176.39 176.39 0 0 1 483 208.55c-7.88 4.53-16.14 8.31-25.2 9.95a31 31 0 0 1-17.56-1.5 25 25 0 0 1-13.78-13.61c-2.95-6.71-3.44-13.73-2.66-20.91a78.81 78.81 0 0 1 5.67-21.08c.21-.5.34-1.3 1.08-1.12s.53 1 .39 1.57l-2.52 10.14a53 53 0 0 0-1.52 10.17c-.33 6.83 1.12 13.18 5.92 18.32a27 27 0 0 0 24 8.84 57.24 57.24 0 0 0 20.55-6.65c10-5.33 19.61-11.19 28.23-18.51 3-2.58 5.83-5.44 8.7-8.21a5.5 5.5 0 0 0 1.58-4.46l-.65-10.29-1.6-15.65-1.61-14.8-1.56-15.37-1-10.69c-.16-1.94-.28-3.9-.36-5.85l-.46-12.73a36.25 36.25 0 0 1 1-8.36c.24-1.21.52-2.42.85-3.62a7.86 7.86 0 0 1 .63-1.31l.36.06c.23 1.25.55 2.48.67 3.73l.95 11.11 1.06 11.68a49.67 49.67 0 0 0 .84 6.6 36.78 36.78 0 0 1 .54 5.25c.17 2.19.14 4.4.44 6.57s.47 4 .57 6.08c.13 2.9.51 5.79.82 8.68l1.58 13.79 1.35 12.95a31.93 31.93 0 0 0 1.67 8.54c.35.89.73 1.76 1.14 2.62 5.27 11 18.27 11.45 25 7.45a26 26 0 0 0 9-8.76 19.21 19.21 0 0 1 4.31-5c.48-.34.93-.59 1.39-.89z" class="B D"/><path d="M433.35 72.43a15.2 15.2 0 0 1 .86 1.58l8.56 21.57a20.17 20.17 0 0 1 .61 2c.16.58.24 1.16-.43 1.5s-1.11-.11-1.45-.59l-2.74-3.87-.85-1.11a1.41 1.41 0 0 0-.63 1.57l.7 10.13 1.61 15.8 1.91 18.5 1.18 14.11 1.07 19.14c.15 4.72.07 9.45-.12 14.16a36.67 36.67 0 0 1-2.31 9.86 2.59 2.59 0 0 1-.33.64 2.15 2.15 0 0 1-.37.35 1.51 1.51 0 0 1-.44-1.27l-.88-14.85-1.34-18.27-1.92-21.08-1.89-18.79-1.59-17.52-2-20.08a3.11 3.11 0 0 0-1-2.15 1.25 1.25 0 0 1-.3-1.56l3.07-8.32c.18-.49.43-1 .65-1.42l.37-.03z" fill="#00a5d8" class="B"/><path d="M222.07 71.92a8.58 8.58 0 0 1 .95 1.5c2.81 7.66 6.45 15 8.75 22.86a29.63 29.63 0 0 1 .68 3.5 1.06 1.06 0 0 1-.8 1.32c-.67.25-1-.12-1.33-.55l-2.57-3.46-1-1.32a2.43 2.43 0 0 0-.7 2.16l.39 4.7 1.71 23.83 1.3 17.83.95 13.7.73 17.73a34.33 34.33 0 0 1-3.13 14.85 5.35 5.35 0 0 1-.5.7 12.27 12.27 0 0 1-.49-1.58 17.6 17.6 0 0 1-.27-2.41l-.71-18.87-1.58-21.4-1.2-16.84-1-13.4-1.07-13.83c-.54-5.65-.81-11.32-2-16.9a3.94 3.94 0 0 0-1.13-2.4 1.6 1.6 0 0 1-.22-2l1.86-4.34c.59-1.46 1-2.76 1.54-4.15.14-.38.3-.76.45-1.15l.39-.08zM46.68 120.05a30.1 30.1 0 0 0-2.68-1.94 16.76 16.76 0 0 0-2.79-1.17c-1.6-.56-2.13-.35-3 1l-1.19 2c-.43.67-.75 1-1.2 1.55a1.28 1.28 0 0 1-.33-1.71l2.92-6.06a2.8 2.8 0 0 0 .38-1.89 30 30 0 0 0-6.21-14 3.82 3.82 0 0 1-.33-.73L31.2 99l-.92-.71-4-3.6a2.79 2.79 0 0 1-1-3c.34-1.39.46-2.83.71-4.23.1-.55.28-1.08.48-1.82 3.87 2.5 6.39 5.9 8.79 9.42s3.65 7.64 5 12a5.57 5.57 0 0 0 .49-1.22 80.69 80.69 0 0 0 .3-4 52.92 52.92 0 0 1 1.15-10.5c.36-1.39.76-2.77 1.18-4.13a6.62 6.62 0 0 1 2.77-3.58 4 4 0 0 1 4.76 0 11.29 11.29 0 0 1 5 9.24A4.41 4.41 0 0 1 54.39 96l-1.08-2.51a11.2 11.2 0 0 0-2.9-4.24 6.27 6.27 0 0 0-2.23-1.24 3.3 3.3 0 0 0-3.81 2.15 12.08 12.08 0 0 0-.9 3.58l-1 14.85c-.06.94 0 1.89 0 2.83.82.31 1.5.54 2.16.82a21.39 21.39 0 0 1 6.08 4.35 2.1 2.1 0 0 1 .58 2.36l-1.15 3.54a3.48 3.48 0 0 1-3.08 2.51c-1.61.28-3.24.54-4.83 1a42.89 42.89 0 0 0-4.53 1.5c-2.11.81-2.63 1.61-2.41 3.82l1.27 10.94 3.52 25.22a76.68 76.68 0 0 1 .15 17 12.62 12.62 0 0 1-.4 1.72c-.91-.05-1.09-.58-1.17-1.18l-.46-4c-.87-9.4-2.11-18.76-3.43-28.11-.79-5.62-1.4-11.26-2-16.9a15.39 15.39 0 0 1 2.74-10.73 7.4 7.4 0 0 1 4.12-3c2-.57 3.88-1.16 5.82-1.76.35-.09.64-.24 1.23-.47z" class="E B"/><path d="M484.36 91c-2.2 6.23-6.55 10.69-10.23 15.57A117.79 117.79 0 0 1 457 124.76c-1.28 1.1-2.5 2.26-3.77 3.37-.38.32-.82.58-1.23.87l-.29-.21a4.23 4.23 0 0 1 .44-1.07c.72-1 1.47-1.89 2.26-2.79l17.88-20.53a89.81 89.81 0 0 0 9.6-13.09c.23-.41.44-.84.73-1.37-.52-.24-1-.44-1.46-.68l-4.87-2.54a3 3 0 0 1-1.58-2.86 10.08 10.08 0 0 1 4.73-8.56 2.94 2.94 0 0 1 4.65 1.1 9.86 9.86 0 0 1 1.1 3.21 30.9 30.9 0 0 1 .32 4.71 3 3 0 0 0 1.6 3 18.89 18.89 0 0 1 1.91 1.3c2.65 1.79 3.47 3.69 2.7 6.77-.91 3.61-1.94 7.18-2.91 10.78a51 51 0 0 0-2 9.94 11.17 11.17 0 0 0 1 5.86 3.4 3.4 0 0 0 3.22 2.26 3.76 3.76 0 0 0 3.45-2.44c.31-.69.39-1.48.63-2.2a13 13 0 0 1 .6-1.32l.37.05a6 6 0 0 1 .19 1.17 19.09 19.09 0 0 1-1.86 8.18c-1.56 3.27-5.43 3.6-7.66.73a12.55 12.55 0 0 1-2.34-7.25 32.46 32.46 0 0 1 1.28-9.9 399.98 399.98 0 0 1 3.7-13.53c.52-1.76.25-3.09-1.22-4.16-1.25-.88-2.45-1.66-3.81-2.56zm-1.23-6a6.38 6.38 0 0 0-1-4.35c-1.14-1.69-2.19-1.89-3.87-.75a8.83 8.83 0 0 0-.92.69c-.84.72-.86 1 0 1.67a24.06 24.06 0 0 0 5.79 2.74h0z" class="B D"/><path d="M132.53 206.84a20.25 20.25 0 0 1 .64-2.75 1.42 1.42 0 0 1 1.08-.76 7.53 7.53 0 0 0 5.39-1.69c.07 0 .18 0 .35-.07.34.52 0 1-.18 1.42a11.47 11.47 0 0 1-4.91 5.3 41 41 0 0 1-4.24 1.83l-7.24 2.91a2.33 2.33 0 0 0-1.64 2.08 36.66 36.66 0 0 0 10.15-1.51l9.73-3c.22.83-.24 1.23-.73 1.61a23.77 23.77 0 0 1-10.26 4.79 23.42 23.42 0 0 1-8.79.27 2.23 2.23 0 0 0-2.43.86 3.49 3.49 0 0 1-.85.77 2.31 2.31 0 0 1-3.14-.37 4.35 4.35 0 0 1-1.12-4 51.24 51.24 0 0 1 .35-1.46l-1.45.56a27.36 27.36 0 0 1-10.71 2.23 8.49 8.49 0 0 1-3.91-.92 3.27 3.27 0 0 1-1.86-4.05 7.74 7.74 0 0 1 5.94-6.19l4.17-1.1a7 7 0 0 1-.89 3.12c-.12.29-.72.41-1.12.53l-3.74 1.13a5.91 5.91 0 0 0-1.73 1c-1 .82-.94 1.58.25 2a16.51 16.51 0 0 0 3.76 1 13 13 0 0 0 6-.81l7.32-2.73a.94.94 0 0 0 .55-.61h-1.92l-3.33.15c-1.69-.06-2.45-1.16-1.88-2.73a15.22 15.22 0 0 1 7.32-8.71 5 5 0 0 1 1.76-.6 2.11 2.11 0 0 1 2.25 3.08c-.24.51-.6 1-1.06 1.72a6.25 6.25 0 0 0-.44-.74c-.88-1.08-1.94-1.4-3-.59a53.47 53.47 0 0 0-4.31 3.8c-.22.2-.27.59-.39.9a2.11 2.11 0 0 0 1.85.72c.92 0 1.83-.11 2.75-.16a13.16 13.16 0 0 1 1.88-.05 1.57 1.57 0 0 1 1.61 1.68 4.53 4.53 0 0 1-2.08 4.16c-.51.37-1.09.64-1.57 1a2.3 2.3 0 0 0 .78 3.85 2.06 2.06 0 0 0 1.61-.27 7.83 7.83 0 0 0 2.07-2.15 10.53 10.53 0 0 1 5.85-4.66l4.41-1.42c.42-.1.86-.28 1.1-.37z" class="B E"/><path d="M564.67 87.72l-1.43-3.07a11.9 11.9 0 0 0-3.41-4.39c-1.23-1-2.1-.91-3.11.3a7.68 7.68 0 0 0-1.86 4.44l-.84 11.13-.33 4.29a6.19 6.19 0 0 1-.36 1.82c-1.42 3.37-2.69 6.8-5.37 9.54a93.66 93.66 0 0 1-14.16 11.82l-10 6.65a2.68 2.68 0 0 1-2.34.65 4.32 4.32 0 0 1 1.82-2.48l5.87-4.68 16-13.08c1.76-1.48 3.28-3.23 4.89-4.88a2.18 2.18 0 0 0 .59-2.37c-1.6-4.5-3.2-9-6-13l-.76-1.05a3 3 0 0 0-.42-.37l-.41.69c-.14.24-.27.48-.48.87-.5-.45-.93-.8-1.33-1.2l-2.63-2.67a3 3 0 0 1-1-2.14 15.31 15.31 0 0 1 1.14-5.77c.78.6 1.48 1.07 2.11 1.64a34.91 34.91 0 0 1 9.72 15.36c.22.68.4 1.37.64 2a11.21 11.21 0 0 0 .52 1.12c.86-.27.84-.86.86-1.43.09-1.9.09-3.82.3-5.71.42-3.65.93-7.28 1.45-10.92a10.49 10.49 0 0 1 1.92-4.44 3.23 3.23 0 0 1 4.44-1.13 8.46 8.46 0 0 1 2.3 1.95 13.88 13.88 0 0 1 3 6.25c.39 1.59-.16 2.87-1.33 4.26zM450.89 195.66a4.66 4.66 0 0 1 1.89-2.46l9.71-7.74 12.57-10.39a59.22 59.22 0 0 0 4.44-4.52 2.18 2.18 0 0 0 .53-2.38c-1.62-4.55-3.25-9.09-6.13-13.06l-1-1.37-.89 1.6a7.15 7.15 0 0 1-.9-.64c-1.09-1.08-2.21-2.14-3.21-3.3a3.36 3.36 0 0 1-.89-1.89 13.56 13.56 0 0 1 1.1-5.87c.77.6 1.48 1.08 2.11 1.64a34.85 34.85 0 0 1 9.72 15.37c.23.73.43 1.47.68 2.19a7.14 7.14 0 0 0 .51.94c.87-.26.8-.88.83-1.43.09-1.91.09-3.82.3-5.72.42-3.64.92-7.28 1.46-10.91a10.39 10.39 0 0 1 1.93-4.44 3.17 3.17 0 0 1 4.31-1.15 8.31 8.31 0 0 1 2.36 1.84 13.66 13.66 0 0 1 3.16 6.51 4.51 4.51 0 0 1-1.39 4.07c-.51-1.07-1-2-1.38-2.93a11.9 11.9 0 0 0-3.36-4.43c-1.33-1.09-2.24-1-3.33.36a7.82 7.82 0 0 0-1.75 4.32l-.82 10.7-.33 4.57a6.75 6.75 0 0 1-.38 2c-1.43 3.38-2.69 6.81-5.39 9.54a85.58 85.58 0 0 1-11.7 10.05c-4.14 2.9-8.37 5.67-12.57 8.49a2.17 2.17 0 0 1-2.19.44h0z" class="D B"/><path d="M278.46 123.87c-.33-.78.21-1.15.67-1.56l10.09-9.07a35 35 0 0 0 5-5.73 2.23 2.23 0 0 0 .47-2.13A49 49 0 0 0 288.51 92l-1.11-1.47-1 1.69-1.12-1a110.25 110.25 0 0 0-2.82-2.88 3.89 3.89 0 0 1-1.24-3.09 16.49 16.49 0 0 1 1.08-5.22 6.24 6.24 0 0 1 2.37 1.63 34.86 34.86 0 0 1 7.33 9.53 44.7 44.7 0 0 1 3.24 8.11c.18.6.2 1.34.95 1.67.7-.37.65-1 .7-1.63l1-11.83c.19-1.89.54-3.77.89-5.65a11 11 0 0 1 2-4.41 3.32 3.32 0 0 1 5-.94 12.28 12.28 0 0 1 5.36 9.11 4.09 4.09 0 0 1-1.53 3.58l-1.43-3a12.64 12.64 0 0 0-3.53-4.66c-1.4-1.15-2.3-1.06-3.44.33a8.28 8.28 0 0 0-1.88 4.58l-.87 11.12-.37 4.85a17.6 17.6 0 0 1-.95 3.73 25.12 25.12 0 0 1-8.47 11.4c-2.91 2.2-6.06 4.09-9.11 6.11a2.14 2.14 0 0 1-.66.27c-.16.07-.31-.04-.44-.06z" class="B C"/><path d="M659.26 86.33l-1.6 4.22a3 3 0 0 1-1.49 1l-14.11 6-39.63 17-1.74.73 1.52-4.76c.17-.43.83-.75 1.33-1l9.77-4.38 44.58-18.63c.35-.14.72-.25 1.08-.37l.29.19zm-100.1 130.13l-10.59-6.53-4.38 6.33-1.25-.63-8.67-4.9c-1.44-.82-1.51-1.1-.69-2.47l3.07-5c.68-1.09.81-1.13 1.93-.45l9.27 5.61c.24.15.5.27.88.46l4.4-6.62a7.45 7.45 0 0 1 .69.34l9 5.8c1.41.92 1.44 1.05.47 2.46l-3.23 4.58-.9 1.02z" class="D B"/><path d="M145.06 125.14c-2.65-1.22-5.52-.86-8.33-.89s-5.58-.36-8.49 1a14.62 14.62 0 0 1 .58-1.36l3.05-5.2a4.6 4.6 0 0 1 4.12-2.25l10.89.09a16.89 16.89 0 0 1 4.24.85c1.55.46 1.95 1.37 1.2 2.75a31.85 31.85 0 0 1-8 9.92 10.93 10.93 0 0 1-3.44 1.78l-9.58 2.82a10.46 10.46 0 0 1-1.26.17 3.42 3.42 0 0 1 1.86-1.68l7.72-4.26 4.38-2.53a11.07 11.07 0 0 0 1.12-.82l-.06-.39zm23.01-21.86l.24-6.11a48.75 48.75 0 0 1 1.92-12.69 7.82 7.82 0 0 1 2.36-3.7 3.91 3.91 0 0 1 5.28-.3 10.52 10.52 0 0 1 4.37 7.61 4.67 4.67 0 0 1-1.4 3.8l-1-2.11a11.26 11.26 0 0 0-2.84-4.09c-2-1.71-3.88-1.49-5.43.6a7.72 7.72 0 0 0-1.24 4.19l-1.17 15.11a8.17 8.17 0 0 1-.79 2.56c-.39.83-1 .81-1.51 0a4.46 4.46 0 0 1-.5-1l-1.31-3.79a28 28 0 0 0-4.72-8.78l-.88 1.76-2.9-2.7c-2.75-2.58-2.25-1.79-1.76-5.3l.7-4.23 2.46 2a30.5 30.5 0 0 1 8.29 13.07l1.32 4.17.51-.07z" class="E B"/><path d="M641.2 118.59l-4.57-4.37a1.79 1.79 0 0 1-.42-1.3l.95-5.93c0-.12.16-.22.35-.47l2.23 1.79a30.68 30.68 0 0 1 8.36 13.37 23.12 23.12 0 0 0 1.46 3.82 11.86 11.86 0 0 0 .32-1.66l.22-5.29a45.76 45.76 0 0 1 1.9-11.84 7.58 7.58 0 0 1 2.67-4 3.89 3.89 0 0 1 4.73-.22 10.48 10.48 0 0 1 4.67 8.18 4.32 4.32 0 0 1-1.46 3.37l-1-2.12a11.23 11.23 0 0 0-2.76-4c-2.05-1.82-4.11-1.61-5.58.71a6.76 6.76 0 0 0-1 2.79c-.37 3.5-.6 7-.87 10.55l-.37 5.42a4.89 4.89 0 0 1-1.44 3.58c-.88-.13-1.12-.79-1.35-1.4-.53-1.44-1-2.88-1.51-4.33a31.74 31.74 0 0 0-4.56-8.56l-.97 1.91z" class="B D"/><path d="M369.94 105.63c.95 0 1.13.66 1.23 1.27l.74 5.23.26 3.72a4.11 4.11 0 0 0 1.52 3 3.94 3.94 0 0 0 5.83-.8 3 3 0 0 0 .35-2.73l-1.49-5.08a7.8 7.8 0 0 1 .49-5.91l.86 1.72 2.64 7a21.92 21.92 0 0 0 .9 2.11 5.54 5.54 0 0 0 5.81 3 7.63 7.63 0 0 0-.4-1l-3.42-6.3a5.89 5.89 0 0 1 .12-6.29c.36.6.68 1 .93 1.54l4 7.76a9.16 9.16 0 0 1 .47 7.09 2.28 2.28 0 0 1-2.58 1.84 6.66 6.66 0 0 1-5.81-3l-1-1.51-.92 2.61a5 5 0 0 1-4.73 3.38 4.47 4.47 0 0 1-3.9-2.09 7.28 7.28 0 0 1-1.16-3.5l-.57-6.84c-.05-.59-.16-1.19-1.07-.88-.34-1.97.36-3.64.9-5.34zM358 144.67l1.41-4c.25-.76.95-.91 1.55-1.17l14.23-6.06 25.48-10.29 1.82-.65-1.87 4.48c-.22.43-.9.67-1.42.89l-16.85 6.92-22.8 9.58-1.32.54-.23-.24zm-34-32.98a22.66 22.66 0 0 0-5.47-2.92c-1.54-.57-1.64-.78-1.2-2.33l1.82-6.18a3.87 3.87 0 0 0 .19-1.12.69.69 0 0 0-.37-.52.7.7 0 0 0-.6.22 3.24 3.24 0 0 0-.45.89l-5.43 13.72a21.32 21.32 0 0 0-1.45 6.7l.37 2.68a4.45 4.45 0 0 0 4 3.63 8.58 8.58 0 0 0 2.86-.16 11.25 11.25 0 0 0 8.06-9.66 5.29 5.29 0 0 0-2.33-4.95h0zm-1.23 7.71c-1.8 1.71-3.86 2.67-6.43 2a3.5 3.5 0 0 1-2.83-3.91c.16-1.49.59-2.95.93-4.57a18.69 18.69 0 0 1 8.31 4.14c1.03.94 1.03 1.4.04 2.34h-.02z" class="C B"/><path d="M155.48 198.93a10.12 10.12 0 0 1 .45-1.84l2.45-5.18a8.09 8.09 0 0 1 4.8-3.91 2.87 2.87 0 0 1 3.59 1.42 8.89 8.89 0 0 1 1 7.69 29.74 29.74 0 0 1-11.86 16.3c-2.58 1.75-5.43 3.11-8.18 4.61-.48.27-1.14.62-1.58 0s.14-1.05.55-1.44.8-.69 1.21-1l11.13-9a29.61 29.61 0 0 0 3.83-4.08 4.68 4.68 0 0 0 .52-5.13 3 3 0 0 0-5.11-1c-.41.4-.73.88-1.12 1.31a12.16 12.16 0 0 1-1 1c-.16.16-.32.16-.68.25zM42.82 218l.76-3.73c.13-.71.67-.87 1.22-1.06l8.19-2.88 24.41-7.74 1.46-.42a10.92 10.92 0 0 1-1 4c-.16.36-.87.52-1.37.68l-16.78 5.46-15.07 5.1c-.52.23-1.06.37-1.82.59z" class="E B"/><path d="M640.39 219.28a5.08 5.08 0 0 1 .7-1.09 8.66 8.66 0 0 1 1.33-.86l11.41-6.84a27.31 27.31 0 0 0 4-3.25 4.32 4.32 0 0 0 1.11-4.63 2.77 2.77 0 0 0-4.57-1.49c-.61.46-1.16 1-1.76 1.5a6.18 6.18 0 0 1-.8.45 1.84 1.84 0 0 1 .35-1.67l3-4.55a7.49 7.49 0 0 1 4.71-2.86 2.7 2.7 0 0 1 3.25 1.77A8.32 8.32 0 0 1 663 203a28.23 28.23 0 0 1-8.58 10.66 29 29 0 0 1-6.9 3.9l-5.18 1.86a8.42 8.42 0 0 1-1.67.25l-.28-.39zM509 202.83a10.11 10.11 0 0 1 .69-1.62l2.77-4.2a7.48 7.48 0 0 1 4.78-3 2.68 2.68 0 0 1 3.27 1.72 8.27 8.27 0 0 1-.12 7.2 28.78 28.78 0 0 1-8 10.24c-3.85 3.13-8.4 4.86-13.06 6.36a2 2 0 0 1-.72.09 7.63 7.63 0 0 1-.92-.17 5.24 5.24 0 0 1 .71-1.22 9.48 9.48 0 0 1 1.45-.94l11.17-6.68a31.46 31.46 0 0 0 4.16-3.33 4.28 4.28 0 0 0 1.23-4.34c-.52-2.48-2.86-3.27-4.85-1.67-.45.37-.84.79-1.3 1.15a8.23 8.23 0 0 1-1 .63l-.26-.22z" class="D B"/><path d="M103.34 145.83a12.42 12.42 0 0 0 .21-1.34l.2-4.86a37.92 37.92 0 0 1 1.57-9.57 6.3 6.3 0 0 1 2.1-3.19 3.28 3.28 0 0 1 4.27-.19 8.79 8.79 0 0 1 3.75 6.5 3.74 3.74 0 0 1-1.2 3.14l-.86-1.88a9.13 9.13 0 0 0-2.51-3.45 2.71 2.71 0 0 0-4.27.46 5.09 5.09 0 0 0-1.11 2.89l-1.07 13.69a4.31 4.31 0 0 1-1 2.52c-.88 0-1.07-.61-1.27-1.13l-1.23-3.5a22.93 22.93 0 0 0-3.92-7.25l-.7 1.31a5.9 5.9 0 0 1-.78-.53L92.87 137a2.1 2.1 0 0 1-.79-2.27c.28-1.21.4-2.45.6-3.67a11.16 11.16 0 0 1 .35-1.17l2.09 1.69a25.92 25.92 0 0 1 7 11.22l1 3 .22.03z" class="B E"/><path d="M318.28 149l-1.38-.78-8.79-5.57c-1.26-.81-1.28-.88-.49-2.13l4.25-6.68 11.45 7.31-5.04 7.85zm-74.13 72.06l1.18-4.45a2.93 2.93 0 0 1 1.36-1.17l18.21-9.81 5.35-2.86c.41-.21.84-.37 1.58-.7l-1.35 4.23c-.09.27-.45.48-.72.66l-2 1.17L246.22 220l-2.07 1.06z" class="C B"/><path d="M626.87 173.28l-1.55 7.1a6.77 6.77 0 0 1-1.39 2.32 2.4 2.4 0 0 1-3.24.66 6.26 6.26 0 0 1-3.39-3.9 16.88 16.88 0 0 1-.47-7.77 44.51 44.51 0 0 1 3.76-11.82 1.49 1.49 0 0 1 .13-.25c.22-.38.46-.8 1-.62s.56.68.38 1.18l-2.05 5.8-1.35 4.52a7.16 7.16 0 0 0 .82 5 4.76 4.76 0 0 0 1.8 1.76 1.82 1.82 0 0 0 2.89-1.07c.4-1.12.63-2.29.93-3.45.07-.27 0-.62.17-.82a3.75 3.75 0 0 1 .87-.61 3.09 3.09 0 0 1 .48.81 5.41 5.41 0 0 1 0 1.14l.21.02zm-60.73-52.75a33 33 0 0 1 1.66-9.42l2.31-5.86a2.55 2.55 0 0 1 .61-1 .63.63 0 0 1 1 .47 3.91 3.91 0 0 1-.26 1.1l-2.79 8a8.88 8.88 0 0 0 .13 6.3 4 4 0 0 0 2 2.3c1.36.65 2.38.3 2.9-1.1a30.85 30.85 0 0 0 .86-3.17c.06-.23.08-.47.13-.7.11-.48.26-1 .86-1s.68.58.69 1.07a7.91 7.91 0 0 1 0 1.29l-1.21 6.17a8.68 8.68 0 0 1-1.57 2.85 2.33 2.33 0 0 1-3.11.7 5.94 5.94 0 0 1-3.41-3.71 14.44 14.44 0 0 1-.8-4.29h0zm-.87 81.47l1.56-4.35a2 2 0 0 1 .94-1l19-7.68a1.36 1.36 0 0 1 .26 0 25.48 25.48 0 0 1-1.85 4.56 2 2 0 0 1-1 .72l-17.88 7.45a7.47 7.47 0 0 1-1.03.3z" class="D B"/><path d="M198.53 193.5a8.91 8.91 0 0 1 .75-1.4l2.86-3.42a6.06 6.06 0 0 1 3.91-2 2.29 2.29 0 0 1 2.54 1.69 6.54 6.54 0 0 1-.23 4.88 16.15 16.15 0 0 1-7.68 8.61 44.79 44.79 0 0 1-5.52 2.1c-1 .36-1.67.17-1.81-.3s.19-1 1.12-1.44l4.07-1.87a19.2 19.2 0 0 0 5-3.31 3.38 3.38 0 0 0 1-3.63 2.21 2.21 0 0 0-3.4-1.36c-.37.22-.69.53-1 .78a9.23 9.23 0 0 1-.84.54c-.07.12-.23.09-.77.13z" class="B E"/><path d="M305.05 207.12a8.75 8.75 0 0 1 .69-1.15l2.67-3.2a6 6 0 0 1 3.41-2 2.5 2.5 0 0 1 3.39 2.15 7.21 7.21 0 0 1-.41 4.35 16.22 16.22 0 0 1-7.71 8.58 58.41 58.41 0 0 1-5.67 2.13 1.35 1.35 0 0 1-.7.12c-.3-.06-.71-.18-.82-.4a1.06 1.06 0 0 1 .13-.91 2.47 2.47 0 0 1 .94-.63l3.94-1.8A20 20 0 0 0 310 211a3.5 3.5 0 0 0 1.19-3.34 2.23 2.23 0 0 0-3.65-1.6c-.4.26-.75.61-1.15.87a5.89 5.89 0 0 1-1 .45l-.34-.26z" class="B C"/><path d="M60.39 155.65a8.45 8.45 0 0 1 .4 1.45 11.34 11.34 0 0 1-1.24 6.79 6.27 6.27 0 0 1-1.12 1.48 3.07 3.07 0 0 1-4.62-.1 9.27 9.27 0 0 1-2.61-6.06 24.76 24.76 0 0 1 1-8.47l2.78-9c.22-.72.57-1.39.88-2.13 1 .4.82 1 .63 1.7l-2.25 8.13a46.1 46.1 0 0 0-1.09 5.45 10 10 0 0 0 .2 3.12 3.28 3.28 0 0 0 3.33 2.81c1.6-.09 2.71-1.31 2.94-3.2l.29-1.93.48-.04z" class="B E"/><path d="M354.92 207.12a6.91 6.91 0 0 1 .65-1.16l2.76-3.31a5.89 5.89 0 0 1 3.46-1.94 2.4 2.4 0 0 1 3.13 1.78 6.59 6.59 0 0 1-.26 4.61 16.92 16.92 0 0 1-6.62 8.11 24.7 24.7 0 0 1-7 2.79 1.14 1.14 0 0 1-.57.07c-.3-.08-.77-.19-.82-.38a1.33 1.33 0 0 1 .22-1 2.6 2.6 0 0 1 1-.59l4.2-1.93a18.35 18.35 0 0 0 4.78-3.2 3.37 3.37 0 0 0 1.05-3.5 2.21 2.21 0 0 0-3.58-1.37c-.32.21-.6.48-.91.7a4.24 4.24 0 0 1-.72.47 1.92 1.92 0 0 1-.54.11l-.23-.26z" class="B C"/><path d="M108.18 98.05a15.44 15.44 0 0 1 .47 2.18 11.21 11.21 0 0 1-1.37 6.2 5.76 5.76 0 0 1-.93 1.27 3.13 3.13 0 0 1-4.83 0 9.77 9.77 0 0 1-2.6-6.8 23.76 23.76 0 0 1 .94-7.06c.92-3.25 1.95-6.48 3-9.71a20.64 20.64 0 0 1 .8-1.91c.65 0 .79.34.77.72a6 6 0 0 1-.24 1.39l-2.81 10.35a11.41 11.41 0 0 0-.12 6.08 3.18 3.18 0 0 0 4 2.4 2.94 2.94 0 0 0 2.06-2.21c.17-.59.18-1.22.3-1.83.07-.34.2-.68.3-1l.26-.07z" class="B E"/><path d="M283 137.1c1.07.42.81 1.11.65 1.75l-1.6 6.38-1.71 8.55a7.56 7.56 0 0 0 .74 4.59 2.62 2.62 0 0 0 2.57 1.76 2.66 2.66 0 0 0 2.52-2 26.34 26.34 0 0 0 .58-2.94L287 154a5.27 5.27 0 0 1 .58 1.2 13.85 13.85 0 0 1-1.44 8.05c-1.52 2.7-3.64 2.87-5.61.47a10.06 10.06 0 0 1-2.14-5.82 28 28 0 0 1 1-9.2l2.72-9.49c.21-.74.56-1.41.89-2.11z" class="B C"/><path d="M179.54 130.82c.11.21.31.4.33.61.21 2.84.1 5.63-1.33 8.21-1.58 2.84-3.76 3-5.77.45a10.91 10.91 0 0 1-2.1-6.72 26.67 26.67 0 0 1 1-7.64c.89-3.36 1.87-6.7 2.84-10 .19-.67.52-1.31.79-2 .71.09.91.47.84 1s-.23 1-.35 1.53l-3 13a8.59 8.59 0 0 0 .28 4.94 6.05 6.05 0 0 0 .62 1.28 2.51 2.51 0 0 0 4.4-.05 11.75 11.75 0 0 0 .87-3c.12-.49.16-1 .24-1.5l.34-.11z" class="B E"/><path d="M250.74 116.53a2.13 2.13 0 0 1 .3.63 14.34 14.34 0 0 1-1.22 8c-1.61 3.1-3.91 3.29-6 .51a11 11 0 0 1-2-6.61 30.26 30.26 0 0 1 1.22-8.61l2.57-8.94c.21-.72.55-1.4.82-2.08.77.09.91.52.83 1s-.23 1-.34 1.54l-3 13a8.32 8.32 0 0 0 .77 6 2.53 2.53 0 0 0 2.33 1.45 2.59 2.59 0 0 0 2.4-1.57 5.28 5.28 0 0 0 .44-1.36c.14-.65.2-1.32.31-2a9.36 9.36 0 0 1 .24-.91l.33-.05z" class="B C"/><path d="M626.55 85l-1.37 6.26a5.5 5.5 0 0 1-1 1.87c-1 1.43-2.09 1.63-3.63.78a6.09 6.09 0 0 1-2.9-3.92 17.55 17.55 0 0 1 .39-9.59c.71-2.6 1.82-5.1 2.76-7.65a1.29 1.29 0 0 1 .36-.61 1 1 0 0 1 .74-.22.85.85 0 0 1 .36.66 4.35 4.35 0 0 1-.31 1.09l-2.47 7a8.15 8.15 0 0 0 .16 5.87 3.6 3.6 0 0 0 2.06 2.09 1.62 1.62 0 0 0 2.35-1 30.76 30.76 0 0 0 .88-3.16c.15-.57.08-1.47.9-1.38s.47 1 .56 1.54a1.31 1.31 0 0 1 0 .28l.16.09z" class="B D"/><path d="M140 92.74a5.6 5.6 0 0 1 .15 1.41 58.65 58.65 0 0 1-1.08 5.89 3 3 0 0 1-2.43 2.58 3.52 3.52 0 0 1-3.22-1.86 8.6 8.6 0 0 1-1.32-5.33 30.46 30.46 0 0 1 3.16-11.66 1.38 1.38 0 0 1 .38-.6.79.79 0 0 1 .64-.11.69.69 0 0 1 .28.57 5.49 5.49 0 0 1-.34 1.09l-2.1 5.94a7.05 7.05 0 0 0 .16 5.17 3.08 3.08 0 0 0 1.63 1.73c1.05.48 1.82.25 2.23-.81a22 22 0 0 0 .79-2.89c.07-.47.12-.96 1.07-1.12z" class="B E"/><path d="M380.2 88.65l-1.17 5.44a5 5 0 0 1-.91 1.61 2.16 2.16 0 0 1-3.27.6 5.18 5.18 0 0 1-2.36-3.13 14.28 14.28 0 0 1-.2-6.5 35.72 35.72 0 0 1 2.83-8.67 1.26 1.26 0 0 1 .27-.5 3.68 3.68 0 0 1 .7-.39c.12.27.39.58.34.81-.2.79-.52 1.54-.79 2.3l-1.66 4.73a6.69 6.69 0 0 0 .17 4.88 4 4 0 0 0 .85 1.31c1.34 1.3 2.72 1 3.26-.8.26-.82.42-1.66.6-2.5.1-.44.22-.94.76-.82.21 0 .34.57.44.9a2.4 2.4 0 0 1 0 .71l.14.02zm-129.32 68.73a4.27 4.27 0 0 1 .14 2.54 31.59 31.59 0 0 1-.86 4.2 7 7 0 0 1-1.2 2.24 2 2 0 0 1-2.7.56 5.09 5.09 0 0 1-2.74-3.33 14.32 14.32 0 0 1-.19-6.51 35.36 35.36 0 0 1 2.83-8.67 2.68 2.68 0 0 1 .46-.72.56.56 0 0 1 .51-.13c.17.11.38.35.37.52a4.39 4.39 0 0 1-.3 1.1l-2.15 6.07a7.08 7.08 0 0 0 .17 5.16 3.1 3.1 0 0 0 1.65 1.72 1.46 1.46 0 0 0 2.22-.85 22 22 0 0 0 .78-2.89c.13-.48.13-.97 1.01-1.01z" class="C B"/><path d="M113.19 215.57l-1.39 3a1.4 1.4 0 0 1-1 .49l-4.11.27a7.55 7.55 0 0 1 1.28-2.79 1.16 1.16 0 0 1 .67-.5 16.74 16.74 0 0 1 4.55-.47zM121.8 205a5.78 5.78 0 0 1 1.27-2.78l2.78 1.24a3.33 3.33 0 0 1-.12.64c-1.11 2.35-1.62 2.47-3.93.9z" class="E B"/><path d="M514.88 98.17l.12 1.33h-.16l-.3-1.34zm67.12 26.4l.56.63-.18.18-.64-.62z" class="D B"/><path d="M416.58 205.23a7.72 7.72 0 0 0-6.73-.15l-2.09.94-.21-.21.51-1.3 1.43-4a6.07 6.07 0 0 0-.41-4.59c-1.6-3-3.58-3.27-5.87-.78a18.4 18.4 0 0 0-3.95 7.09 2.4 2.4 0 0 0 .06.66 8.21 8.21 0 0 0 .85-.88l1.38-2.18c1.38-2 3.32-1.93 4.53.21a5.29 5.29 0 0 1 .39.92 6.56 6.56 0 0 1-.84 5.75 17.46 17.46 0 0 1-4.14 4.56l-4.63 3.44a2 2 0 0 1-1.17.45 7 7 0 0 1-5.75-3.37 2.17 2.17 0 0 1-.21-1.92l.29-.82a7.16 7.16 0 0 0-2.35 3.72 5.11 5.11 0 0 0 2.74 6.23 7.59 7.59 0 0 0 4.09.73l5.2-.47a34.16 34.16 0 0 0 13.55-3.83 11.87 11.87 0 0 0 5.37-5.8 2.52 2.52 0 0 0-.64-3.36 6.27 6.27 0 0 0-1.4-1.04h0zm-17.47 9.89a17 17 0 0 1 1.67-1.7l5.27-3.76a7 7 0 0 1 6.65-.47 4.34 4.34 0 0 1 2.23 2c-4.83 2.91-10.05 3.72-15.82 3.93z" class="B C"/><path d="M553.48 133.86a42 42 0 0 0-5-2.64c-1.79-.82-1.93-.92-1.68-2.9.06-.43.08-.87.11-1.31l-.4-.09a6.32 6.32 0 0 0-.52.64 36.26 36.26 0 0 0-4.74 11.75 18.54 18.54 0 0 0-.3 4.82 4.79 4.79 0 0 0 4.73 4.85 7.47 7.47 0 0 0 3.23-.58 11.15 11.15 0 0 0 6.95-8.2c.64-2.65-.03-4.86-2.38-6.34zm-.54 7.52a6.58 6.58 0 0 1-7.13 2.28 3.66 3.66 0 0 1-2.6-3.71 12.49 12.49 0 0 1 1.21-4.64 17.77 17.77 0 0 1 8.42 4.41 1.13 1.13 0 0 1 .1 1.66h0z" class="B D"/><path d="M808.43 38.43c20.13 3.74 33.16 24.48 29.11 46.31-3.08 16.55-15.1 29-29.5 32.39 4.83-.66 9.53-2.09 13.06-4.8l4.85 10.39c-9.73 4.13-24.1 11.53-35 10-10.71-1.3-18.79-10.87-28.74-21.22l6.86-9.5c2.8 4.64 7 7.74 11.58 10-12.28-8.35-19.07-24.31-16-40.9 4.05-21.83 23.66-36.49 43.79-32.74l-.01.07zm-2 11.06c-17.26-3.21-34 8.79-37.33 26.8a33.72 33.72 0 0 0 6 26.44 34.54 34.54 0 0 1-4.8-25.18c3.34-18 19.41-30.08 35.89-27s27.13 20.12 23.81 38.1a34.56 34.56 0 0 1-13.52 21.77 33.72 33.72 0 0 0 15.14-22.5c3.38-18.01-7.96-35.22-25.22-38.43h.03z" class="C"/><path d="M814.73 52.32a32.7 32.7 0 0 1 17.46 28.91 32.7 32.7 0 0 0-17.46-28.91h0zm14.06 44.23l-.09.19.09-.19zm-.36.74a2.12 2.12 0 0 0-.11.21 2.12 2.12 0 0 1 .11-.21zm-.35.66l-.14.26.14-.26zm-.37.67l-.18.31.18-.31zm-.41.7l-.15.25.15-.25zm-.41.67l-.2.31.2-.31zm-.45.69l-.2.3.2-.3zm-.37.55l-.33.46.33-.46zm-.44.61l-.39.53.39-.53zm-.49.66l-.44.56.44-.56zm-.5.64l-.51.62.51-.62zm-.53.63a32.93 32.93 0 0 1-7.65 6.65A34.56 34.56 0 0 0 830 88.65c3.34-18-7.3-35.05-23.77-38.11s-32.55 9-35.89 27a34.54 34.54 0 0 0 4.8 25.18 32.79 32.79 0 0 1-4.75-8.94 31.14 31.14 0 0 0 53.74 10l-.02-.01zm-53.77-10l-.24-.77.24.72v.05zm-.27-.83c-.07-.22-.14-.44-.2-.67.06.23.13.45.2.67zm-.26-.85l-.16-.58.16.58zm-.22-.81l-.12-.46.12.46zm-.21-.83c0-.12 0-.23-.08-.35 0 .12.05.23.08.35zm-.18-.8c0-.12-.05-.24-.07-.36l-.09-.48-.06-.31.06.31.16.84h0zm-.28-1.55c0-.13 0-.27-.07-.4 0 .13 0 .27.07.4zm-.13-.83v-.32.32zm-.1-.81v-.24.24zm-.08-.84v-.23.23zm1.75-14.19c4.39-12.86 15.92-21.7 28.83-22.38-12.91.64-24.44 9.48-28.83 22.34v.04z" fill="#f8e5d1"/><path d="M770.41 77.09c9.8-4.88 19.77-7.48 30.05-5.83 13.87 3.34 23 9.38 29.61 16.9 3.06-17.8-7.54-34.59-23.86-37.62s-32.21 8.83-35.8 26.55z" class="C"/><path d="M788 98.23c-2-.71-3.08.65-2.34 2.59 1.15 3.69 3.8 6 6.43 8.4 3 2 5.12.83 7.93-.75a57.08 57.08 0 0 0 6.88-4.3c1.56-1.22 1.76-3.23-.2-2.89-5.18.89-13.91-.9-18.7-3v-.05zm1-10.56c4.73-7.09-5.29-14-10.23-8.3-2 2.25-2.29 5.59.1 7.69 2.07 1.82 5.37 1.69 6.18-1.75.25-2.27-1-4.2-3.67-4.09 1.45-2.15 4.47-.91 5.86.74a9 9 0 0 1 1.76 5.71h0zm32.75 5.51c4.73-7.09-5.29-14-10.23-8.3-2 2.26-2.29 5.59.1 7.69 2.07 1.83 5.37 1.69 6.18-1.75.25-2.27-1-4.19-3.67-4.08 1.45-2.16 4.47-.92 5.86.73a9 9 0 0 1 1.81 5.71h-.05zm-69.26-30.41a36.1 36.1 0 0 1-6.67 53.46c-3.18.32-6.46.68-8.76 3-3.2-.4-6.09 1.49-8.69 3.23a39.67 39.67 0 0 1-3.79.12A36.15 36.15 0 0 1 689.6 81l3 .46a33 33 0 1 0 65.67 5.7 33 33 0 0 0-8.18-22.41c.91-.64 1.64-1.3 2.4-1.98z" fill="#414042"/><path d="M749.06 65.63c9.817 11.052 10.715 27.414 2.165 39.474s-24.287 16.628-37.965 11.022-21.683-19.905-19.31-34.496a76.2 76.2 0 0 0 29.86-3.09 78 78 0 0 0 25.25-12.91h0z" fill="#f8e5d1"/><path d="M713.14 106.19a1.51 1.51 0 0 1 1.64-2.54h0 0a13.9 13.9 0 0 0 3.43 1.57 18.07 18.07 0 0 0 4 .73c7.17.55 15.18-2.5 18.73-7 .33-.423.862-.638 1.394-.564s.984.427 1.185.925.122 1.065-.209 1.489c-4.12 5.27-13.23 8.81-21.32 8.19a21.38 21.38 0 0 1-4.64-.85 17 17 0 0 1-4.14-1.91h-.08l.01-.04zm22.65-32.34a9.91 9.91 0 0 1-2.67 3.37 12.16 12.16 0 0 0 .23-2.24 60.52 60.52 0 0 0 2.44-1.13h0zM732 75.59a22.07 22.07 0 0 1-9.3 7.93 11.33 11.33 0 0 0 1.94-5.23c2.54-.79 5-1.7 7.36-2.7h0zm-9 3.18c-1.33.38-2.65.74-4 1a6.39 6.39 0 0 1-1.51 2.56 14.93 14.93 0 0 0 5.51-3.56h0zm-11.15 6.55a5.53 5.53 0 0 1 4.3 2.17 4.16 4.16 0 0 1-4.361 6.705 4.16 4.16 0 0 1-2.939-4.055 4.29 4.29 0 0 1 .55-2 5.57 5.57 0 0 0-2.19 4.31 5.76 5.76 0 0 0 .36 2.08 5.56 5.56 0 0 1 4.28-9.22v.01zm29.15-7.4a5.53 5.53 0 0 1 4.3 2.17 4.17 4.17 0 0 1-5.602 6.112 4.17 4.17 0 0 1-1.138-5.452 5.55 5.55 0 0 0-2.2 4.31 5.76 5.76 0 0 0 .36 2.08 5.56 5.56 0 0 1 4.28-9.22z" fill="#414042" class="B"/><path d="M737.49 120.52c-6.79-1.53-12.32 9.65-20.11 5.61-1.1 6 2.54 11.63 7.26 12.5 7.7-1.82 9.34-11.06 13.59-15.07 5.54-1 13.55 6.1 20.28 3.57 2.69-4.41.61-12-2.93-13.86-4 6.37-13.77 1.97-18.09 7.25zM726 50.42a36 36 0 0 1 25.65 11.43 70.62 70.62 0 0 1-28.08 15.68 70 70 0 0 1-33.7 1.88c3.449-17.128 18.661-29.334 36.13-28.99h0z" class="D"/><path d="M690.35 77.05l.2-.7v-.07h.07a69.46 69.46 0 0 0 16.23.84 72.46 72.46 0 0 0 15.8-2.82 71.64 71.64 0 0 0 26.72-14.7h.06 0l.54.5.07.06-.07.06a71.91 71.91 0 0 1-27.09 15 71.2 71.2 0 0 1-32.53 1.91h-.09v-.09l.09.01zm1-2.84h-.06v.07L691 75v.09h.1a67.49 67.49 0 0 0 15.81.8 69.72 69.72 0 0 0 15.37-2.74 69.93 69.93 0 0 0 26.11-14.37l.07-.07-.07-.06-.58-.47h-.06-.05a69.74 69.74 0 0 1-40.79 16.75 68 68 0 0 1-15.55-.7l-.01-.02zm54.73-17.34h0v.05A69.34 69.34 0 0 1 721.38 70a68.61 68.61 0 0 1-29.26 2.16h-.06v.06l-.29.69v.1h.1A68.85 68.85 0 0 0 721.66 71a69.32 69.32 0 0 0 25-13.52l.08-.06-.08-.06-.58-.49z" fill="#fff"/><path d="M761.17 158.77c29.06-26.54 77.88-38.46 123.08-24.57-54.66-12.37-91 13.78-123.38 40.62C734 150.09 690.53 136 647.049 138c-.229 0 56.301-15.55 114.121 20.77z" class="C"/><path d="M657.26 16.06c29.06 26.53 77.88 38.46 123.08 24.57C725.68 53 689.32 26.85 657 0c-27 24.73-70.38 38.85-113.861 36.86-.239-.02 56.301 15.51 114.121-20.8z" class="D"/><g class="B"><path d="M417.93 162.89l-.45-7.57-1.26-15.4-1.64-17.24-1.31-13-1.07-13.7a2.47 2.47 0 0 1 .46-2l1 1.3 2 2.84a1.18 1.18 0 0 0 1.45.62c.72-.25.75-.81.62-1.41a10.09 10.09 0 0 0-.45-1.8l-8.65-21.82a6.2 6.2 0 0 0-.62-1c-.21.16-.32.2-.35.27l-3.45 9a2.86 2.86 0 0 0 .29 2.47 9.37 9.37 0 0 1 .84 2.25 81.48 81.48 0 0 1 1.41 11.3l1.36 15.25 1.28 13.53 1 10.69 1.62 15.8 1.64 16.23.67 6.84a1.74 1.74 0 0 1-.89 1.93 36.7 36.7 0 0 1-7 3.38l-7.34 2.25c-.86.26-1.76.38-2.94.63l.79-1.67a85.61 85.61 0 0 0 5-11.08 7.74 7.74 0 0 0 .23-4.49 10.79 10.79 0 0 0-2.8-5.1 44.35 44.35 0 0 0-3.51-3.21 18.27 18.27 0 0 0-14-3.89 25.45 25.45 0 0 0-10.86 4.1 89.9 89.9 0 0 0-19.27 16.64c-.32.36-.55.88-1.16.93a1.17 1.17 0 0 1-.08-.33l.27-1.55a58.29 58.29 0 0 0 1.42-14.06c0-7.64-.75-15.25-1.31-22.86l-1.3-16.84-1.07-14.84c-.23-3.81-.35-7.63-.5-11.44 0-.54-.09-1.14.6-1.54l.94 1.12c.85 1 1.68 2.1 2.55 3.13.37.44.91 1 1.45.53a2.21 2.21 0 0 0 .49-1.52 4.1 4.1 0 0 0-.41-1.5l-8-20.73a14 14 0 0 0-.74-1.42c-.23.26-.35.35-.4.47l-3.58 8.29a2.56 2.56 0 0 0 .08 1.94 14.9 14.9 0 0 1 .89 3.16 203.95 203.95 0 0 1 .94 9.25c.2 2.71.24 5.43.4 8.15l1.37 22.43.69 11.43 1.34 17.83.74 13.15c.1 3.52-.05 7.05-.13 10.58a5.15 5.15 0 0 1-1.16 3c-1.42 1.88-2.89 3.71-4.23 5.64a3.07 3.07 0 0 1-3.08 1.42h-.87a66.17 66.17 0 0 1-15.68-2.73 14.24 14.24 0 0 1-1.55-.67c.44-.68.77-1.25 1.16-1.78a20.87 20.87 0 0 0 3.51-7.33 27.48 27.48 0 0 0-1.94-18.56 9.82 9.82 0 0 0-1.83-2.54 2.81 2.81 0 0 0-2.93-.72 11.42 11.42 0 0 0-5.38 3.22 35.56 35.56 0 0 0-5.75 7.88 26.27 26.27 0 0 0-3.44 11.58 13.61 13.61 0 0 0 1.91 8.23c.24.39.42.81.66 1.28-.52.25-.9.46-1.3.61a38.11 38.11 0 0 1-14.46 2.64 28.72 28.72 0 0 1-12-3 13.11 13.11 0 0 1-5-4 21 21 0 0 1-4.21-9c-.68-4.53-1.25-9.07-1.66-13.63-.46-5.13-.65-10.28-1-15.42l-2-27.12-1-13.28-1.66-20c-.29-3.33-.7-6.64-1.08-10a6.72 6.72 0 0 0-.38-1.23c-.91.19-1 .78-1.16 1.33l-1.37 4.82a16.76 16.76 0 0 0-.64 5.23l.39 11.44c.17 3.38.46 6.76.74 10.13l.92 9.83 1 14 1.35 20.85 1 16.14c.18 2.95.26 5.91.34 8.86a5.65 5.65 0 0 1-2.19 4.91l-8 6.41c-6.68 5.08-13.52 9.91-21.11 13.61a92.15 92.15 0 0 1-16.69 6.56c-5.28 1.4-10.63 2.16-16.07 1-10.72-2.23-17.67-8.37-20.21-19.06a31.87 31.87 0 0 1 .26-14.18c0-.13.07-.26.1-.39h-2.83l-1 6.43a44.23 44.23 0 0 0 1.06 17.89c2.61 9.43 8.63 15.57 18.38 18a39.25 39.25 0 0 0 15.27.37 55.31 55.31 0 0 0 17.12-5.67 183.8 183.8 0 0 0 29.15-19 35.66 35.66 0 0 0 4.85-4.9 14.86 14.86 0 0 0 3.55-7.87c.14-1.11.4-2.2.6-3.29a1.32 1.32 0 0 1 .51.86c.3 1.84.51 3.69.88 5.51a18.19 18.19 0 0 0 8.49 12.47 24 24 0 0 0 15 3.76 47.83 47.83 0 0 0 20.13-6.82 3.05 3.05 0 0 1 3.1-.17 47.59 47.59 0 0 0 6.79 2.48 85.22 85.22 0 0 0 19.07 2.68 194.12 194.12 0 0 0 20.61-.3c4.72-.4 9.44-.91 14.13-1.57a184.56 184.56 0 0 0 19.68-4.29 104.51 104.51 0 0 0 14.45-4.68 12.5 12.5 0 0 0 7.14-7.13c.35-.88.67-1.79.93-2.7a46.22 46.22 0 0 0 1.34-14.74h0zm-102 20.6a1.86 1.86 0 0 1-1.8.17 14.78 14.78 0 0 1-7.19-5.32 2.29 2.29 0 0 1-.2-2.66 32.87 32.87 0 0 1 7.79-9.87c2.31-1.91 3.15-1.77 4.81.74a18.33 18.33 0 0 1 2.9 8.3l.26 2.57a2.84 2.84 0 0 1-1.28 2.3l-5.33 3.77h.04zm73.69-1.81a53 53 0 0 1-13.85 5 130.31 130.31 0 0 1-25.77 3.11c-1.6 0-3.19 0-4.79-.09a4.42 4.42 0 0 1-.7-.14 2.38 2.38 0 0 1 .24-.52c5.26-6.12 10.53-12.23 16.93-17.25 2.53-2 5.22-3.77 7.92-5.54a16.8 16.8 0 0 1 6.72-2.54 19 19 0 0 1 12.52 2.63A24.17 24.17 0 0 1 396 173a.83.83 0 0 0 .08.12c1.59 2.54 1.31 3.37-.7 4.86a49.19 49.19 0 0 1-5.8 3.7h.04z" class="C"/><path d="M179.88 174.45v-.06a35.69 35.69 0 0 0 9.59-2.61l7.77-3.54 1.5-.64.53 1.45a20.88 20.88 0 0 0 5.2 8.17 13.85 13.85 0 0 0 5.28 3.18 5.63 5.63 0 0 0 4.23-.21 8.69 8.69 0 0 0 4.76-5.49 25.19 25.19 0 0 0 1.18-12.14 7.36 7.36 0 0 0-5.27-6.24 13.87 13.87 0 0 0-7-.45c-1.56.28-3.08.74-4.64 1.12a1.93 1.93 0 0 1-.14-.43l-1.78-20.24a4.41 4.41 0 0 1 1.62-4.11 52.12 52.12 0 0 0 9.16-10.12c.1-.16.18-.34.22-.41 2.63.46 3.46 2.65 4.94 4.36l1.08-2.87a2.92 2.92 0 0 0-1.1-3.44l-2.31-1.74a2.57 2.57 0 0 1-1.26-2.91 23.83 23.83 0 0 0 .19-4.14 3.74 3.74 0 0 0-2.39-3.48c-1.37-.58-2.53 0-3.58.91a10.76 10.76 0 0 0-3.52 5.14 3.43 3.43 0 0 0 1.45 4.27c1 .7 2.16 1.27 3.24 1.9l1.68.95a128.87 128.87 0 0 1-9.76 10.07 6.3 6.3 0 0 1-.15-.64l-1.41-21.13-.65-11.29a2.61 2.61 0 0 1 1.07-2.51l.58.72 3 3.72c.31.39.64.77 1.2.57s.6-.73.58-1.19a9.39 9.39 0 0 0-.23-2l-1.76-6.49a62.15 62.15 0 0 0-2-6c-1.6-3.84-3.35-7.61-5.05-11.4a5.55 5.55 0 0 0-.7-.92 16.5 16.5 0 0 0-.88 1.64l-2.88 7.19a3.55 3.55 0 0 0 0 3 15.73 15.73 0 0 1 1.4 4.48c.45 5.47.69 11 1 16.43l.67 12.72 1.07 16.57a2.56 2.56 0 0 1-1 2.36l-11.84 10.36c-.39.35-1 .58-1 1.51a12.12 12.12 0 0 0 1.65-.81l11.18-7.95 1.17-.84.2 2.7 1.37 16.4c.13 1.54.11 1.57-1.25 2.17-2 .9-4.06 1.8-6.12 2.61a31.17 31.17 0 0 1-7.84 2 13.09 13.09 0 0 1-9.24-2.2c-2.6-1.79-4.34-4.1-3.35-7.53a4.6 4.6 0 0 0-.19-1.58 9.92 9.92 0 0 0-1.39.81 14.83 14.83 0 0 0-1.24 1.39l-5.42 6.38a9.81 9.81 0 0 1-5.48 3.29c-4.19.83-7.16-.17-9.17-3.47a4.12 4.12 0 0 1-.27-4.58 3.41 3.41 0 0 0 .37-.93c.14-.51.7-1.14 0-1.54s-1.18.17-1.65.57a5 5 0 0 0-.59.63l-1.29 1.55a34.07 34.07 0 0 1-7.08 6.53 14.47 14.47 0 0 1-6.75 2.41 8 8 0 0 1-7.26-3.09 3.58 3.58 0 0 1-.55-4c.44-1 .82-1.94 1.22-2.91a1.4 1.4 0 0 0-.18-1.71l-1.19 1.06c-2.65 2.3-5.19 4.74-8 6.86a21.4 21.4 0 0 1-24.09 1.14 11.65 11.65 0 0 1-4.61-4.83 34.51 34.51 0 0 1-2.13-5.3 40.49 40.49 0 0 1-1.47-9.6l-.7-16.73-1.42-31.45c-.18-3.53-.49-7.05-.76-10.57l-.67-7.83c-.05-.56-.15-1.12-.23-1.67l-.29-.06c-.22.5-.47 1-.65 1.51l-2.5 7.62a14.53 14.53 0 0 0-.61 5.64l.87 16.15.36 10.73 1 30c.13 5.29.13 10.59.07 15.89A55.33 55.33 0 0 0 76.9 177a7.48 7.48 0 0 1 .08 1.07 5.42 5.42 0 0 1-.55.09 27 27 0 0 0-10.75 2 66.08 66.08 0 0 0-16.6 9.31l-18.38 14c-2.58 1.91-5.38 3.55-8.11 5.27a13.45 13.45 0 0 1-9.78 1.6c-6.7-1.12-8.83-6.42-8.28-10.44A23.25 23.25 0 0 1 6 194.71a88 88 0 0 1 9.36-16.93c.18-.28.41-.53.61-.8a1.45 1.45 0 0 1 1.21-.64 3.89 3.89 0 0 0 3-1.54 16.46 16.46 0 0 0 2.21-3.33 27.07 27.07 0 0 0 1.88-11.78 3.67 3.67 0 0 0-.39-1.09h-.34a5.28 5.28 0 0 0-.65 1.15 18.58 18.58 0 0 0-.42 2.1 7.17 7.17 0 0 1-2.51 4.7 4.39 4.39 0 0 1-6.68-.94 12.47 12.47 0 0 1-2.17-5.61 32.12 32.12 0 0 1 .46-10.67l6.16-30.15 1-4.77c.19-1 .1-1.15-1-1.69-.52 1.6-1.1 3.15-1.53 4.74a319.93 319.93 0 0 0-7.44 33.36 47.11 47.11 0 0 0-.78 12.82c.53 4.56 1.7 8.81 5.57 11.95l-3.11 4.52a52.06 52.06 0 0 0-7.21 14.29 26.43 26.43 0 0 0-1 12c.72 4.94 3.52 8.46 7.59 11.17A10.44 10.44 0 0 0 15 219.3a16 16 0 0 0 9.8-2.52c1.74-1.12 3.44-2.32 5.07-3.58l21.21-16.54a50.88 50.88 0 0 1 18.6-9.07 22.35 22.35 0 0 1 17 2.19c2 1.11 3.8 2.45 5.65 3.75 1.07.76 1.39.79 1.78-.37a55.61 55.61 0 0 0 1.8-6 4.7 4.7 0 0 0-2.5-5.69c-.85-.45-1.64-1-2.45-1.54l-8-5.25a7.54 7.54 0 0 1-3.56-5.79c-.29-2.55-.43-5.13-.61-7.69a4.11 4.11 0 0 1 .07-.86c.5 1.1.74 2.21 1.13 3.27 2 5.35 5.14 9.69 10.81 11.58a20.38 20.38 0 0 0 18.44-2.4 32.77 32.77 0 0 0 6.23-5.34c.36-.39.79-.73 1.4-1.29a7.75 7.75 0 0 1 0 1c-.58 3.38 2.82 8 6.93 8.71a12.81 12.81 0 0 0 11.8-3.7c1.49-1.5 2.8-3.16 4.22-4.73.36-.41.78-.76 1.27-1.23.1.35.15.48.17.61.56 3.94 2.93 6.43 6.55 7.87a5.85 5.85 0 0 0 2.41.39 12.42 12.42 0 0 0 8.39-3.41 34 34 0 0 0 5-6.08c.53-.83 1.15-1.59 1.73-2.38a2.2 2.2 0 0 1 .35 1.19 9.81 9.81 0 0 0 2.42 5.86 12 12 0 0 0 7.61 4.06c.28 0 .53.1.78.15h0l3.38-.02zm35.64-3.39c-3.24.37-8.5-2.77-9.82-5.8 4.48-1.85 8.89.74 9.82 5.8h0zm-9-57.85a.87.87 0 0 1 0-.24c.77-1 1.61-2 3.08-1.65.94.19 1.87 1.66 2 3.06a10.8 10.8 0 0 1-.08 1.39 6.63 6.63 0 0 1-4.98-2.56h-.02z" class="E"/><path d="M179.88 174.45h-3.36 0l.36.07-.18 1.06h2.88z" class="C"/></g></g></svg>